<svg xmlns="http://www.w3.org/2000/svg" xmlns:xlink="http://www.w3.org/1999/xlink" xmlns:fi="http://pattern.flaticon.com/" x="0" y="0" width="700" height="350" viewBox="0 0 700 350"><rect x="0px" y="0px" width="100%" height="100%" opacity="1" fill="#ffffff"/><defs><g transform="matrix(0.11741682887077332 0 0 0.11741682887077332 8 121)" id="L1_0"><path d="M492.168,309.579l-17.626-10.177c2.96-14.723,4.458-29.466,4.458-43.902c0-14.646-1.474-29.403-4.384-43.946l17.552-10.134   c5.436-3.138,9.325-8.206,10.949-14.269s0.791-12.396-2.348-17.832l-48-83.139c-3.139-5.436-8.206-9.325-14.269-10.949   c-6.064-1.624-12.396-0.791-17.833,2.348l-17.566,10.142C380.912,68.2,354.798,53.092,327,43.692V23.5   C327,10.542,316.458,0,303.5,0h-96C194.542,0,184,10.542,184,23.5v20.193c-27.65,9.362-53.728,24.49-75.999,44.088L90.332,77.579   c-5.437-3.139-11.77-3.973-17.833-2.348c-6.063,1.625-11.13,5.513-14.269,10.949l-48,83.139   c-3.139,5.436-3.972,11.769-2.348,17.832s5.513,11.131,10.949,14.269l17.626,10.177C33.499,226.32,32,241.063,32,255.5   c0,14.644,1.474,29.401,4.384,43.945l-17.552,10.134c-11.222,6.479-15.08,20.879-8.602,32.102l48,83.139   c6.479,11.221,20.879,15.08,32.102,8.601l17.565-10.142c22.19,19.521,48.303,34.629,76.103,44.03V487.5   c0,12.958,10.542,23.5,23.5,23.5h96c12.958,0,23.5-10.542,23.5-23.5v-20.193c27.651-9.362,53.729-24.49,76-44.087l17.668,10.201   c11.221,6.479,25.623,2.62,32.102-8.601l48-83.139C507.248,330.458,503.39,316.058,492.168,309.579z M487.779,334.181l-48,83.138   c-2.343,4.06-7.552,5.455-11.611,3.111l-22.392-12.928c-2.845-1.643-6.43-1.242-8.842,0.989   c-22.893,21.173-50.437,37.148-79.653,46.199c-3.14,0.973-5.281,3.877-5.281,7.164V487.5c0,4.687-3.813,8.5-8.5,8.5h-96   c-4.687,0-8.5-3.813-8.5-8.5v-25.645c0-3.287-2.141-6.191-5.28-7.164c-29.396-9.107-56.974-25.062-79.755-46.139   c-1.421-1.315-3.25-1.995-5.095-1.995c-1.286,0-2.579,0.33-3.748,1.005L82.832,420.43c-4.06,2.343-9.268,0.948-11.611-3.111   l-48-83.138c-2.343-4.059-0.947-9.268,3.111-11.612l22.272-12.859c2.844-1.642,4.289-4.942,3.566-8.146   C48.739,286.357,47,270.858,47,255.5c0-15.1,1.765-30.584,5.247-46.022c0.722-3.203-0.723-6.504-3.566-8.145L26.332,188.43   c-1.966-1.135-3.372-2.968-3.96-5.161c-0.587-2.193-0.286-4.484,0.849-6.45l48-83.139c1.135-1.966,2.968-3.373,5.162-3.96   c2.192-0.588,4.484-0.286,6.45,0.849l22.392,12.928c2.846,1.644,6.43,1.242,8.842-0.989c22.894-21.173,50.437-37.148,79.653-46.199   c3.14-0.973,5.281-3.877,5.281-7.164V23.5c0-4.687,3.813-8.5,8.5-8.5h96c4.687,0,8.5,3.813,8.5,8.5v25.645   c0,3.287,2.141,6.191,5.28,7.164c29.395,9.106,56.973,25.061,79.755,46.139c2.412,2.232,5.997,2.633,8.843,0.99l22.29-12.869   c1.967-1.135,4.258-1.437,6.45-0.849c2.193,0.588,4.026,1.994,5.162,3.96l48,83.139c1.135,1.966,1.437,4.257,0.849,6.45   c-0.588,2.193-1.994,4.026-3.96,5.161l-22.272,12.859c-2.844,1.642-4.289,4.943-3.566,8.146c3.431,15.206,5.17,30.704,5.17,46.065   c0,15.1-1.765,30.584-5.247,46.021c-0.722,3.203,0.723,6.503,3.566,8.145l22.349,12.903   C488.727,324.913,490.123,330.122,487.779,334.181z"/><path d="M255.5,104C171.962,104,104,171.963,104,255.5S171.962,407,255.5,407S407,339.037,407,255.5S339.038,104,255.5,104z    M255.5,392C180.234,392,119,330.766,119,255.5S180.234,119,255.5,119S392,180.234,392,255.5S330.766,392,255.5,392z"/><path d="M283.5,216h-28c-4.142,0-7.5,3.358-7.5,7.5v64c0,4.142,3.358,7.5,7.5,7.5s7.5-3.358,7.5-7.5V271h20.5   c15.164,0,27.5-12.336,27.5-27.5S298.664,216,283.5,216z M283.5,256H263v-25h20.5c6.893,0,12.5,5.607,12.5,12.5   S290.393,256,283.5,256z"/><path d="M214.522,220.867c-1.098-2.927-3.896-4.867-7.022-4.867h-8c-3.126,0-5.925,1.939-7.022,4.867l-24,64   c-1.455,3.878,0.511,8.201,4.389,9.656c3.878,1.455,8.201-0.511,9.656-4.389L186.697,279h33.605l4.175,11.133   c1.129,3.011,3.987,4.869,7.023,4.869c0.875,0,1.765-0.154,2.632-0.479c3.878-1.454,5.844-5.778,4.389-9.656L214.522,220.867z    M192.322,264l11.178-29.807L214.678,264H192.322z"/><path d="M327.5,216c-4.142,0-7.5,3.358-7.5,7.5v64c0,4.142,3.358,7.5,7.5,7.5s7.5-3.358,7.5-7.5v-64   C335,219.358,331.642,216,327.5,216z"/><path d="M309.152,87.3c5.205,1.659,10.394,3.586,15.421,5.726c0.958,0.408,1.954,0.601,2.934,0.601c2.916,0,5.69-1.712,6.904-4.564   c1.622-3.811-0.152-8.216-3.963-9.838c-5.458-2.323-11.09-4.415-16.742-6.216c-3.945-1.258-8.165,0.922-9.423,4.868   C303.026,81.823,305.206,86.042,309.152,87.3z"/><path d="M100.45,339.904c-1.984-3.636-6.541-4.976-10.176-2.992c-3.636,1.984-4.976,6.54-2.992,10.176   c3.112,5.704,6.557,11.315,10.239,16.677c1.454,2.117,3.801,3.255,6.189,3.255c1.463,0,2.941-0.427,4.239-1.318   c3.415-2.345,4.282-7.014,1.937-10.428C106.493,350.332,103.318,345.161,100.45,339.904z"/><path d="M240.14,431.341c-40.189-3.463-78.337-20.879-107.416-49.041c-2.976-2.882-7.724-2.805-10.605,0.17   c-2.881,2.976-2.806,7.724,0.17,10.605c31.55,30.555,72.947,49.452,116.563,53.21c0.219,0.019,0.436,0.028,0.652,0.028   c3.851,0,7.127-2.949,7.464-6.856C247.323,435.331,244.266,431.697,240.14,431.341z"/><path d="M363.425,97.287c-3.42-2.337-8.087-1.459-10.424,1.96c-2.337,3.42-1.459,8.087,1.96,10.424   c34.844,23.813,60.049,59.248,70.972,99.776c0.902,3.346,3.93,5.55,7.237,5.55c0.646,0,1.303-0.084,1.956-0.26   c4-1.078,6.368-5.194,5.29-9.193C428.564,161.564,401.221,123.118,363.425,97.287z"/></g><g transform="matrix(0.11741682887077332 0 0 0.11741682887077332 244 152)" id="L1_1"><path d="M471.5,56h-432C17.72,56,0,73.72,0,95.5v320C0,437.28,17.72,455,39.5,455h432c21.78,0,39.5-17.72,39.5-39.5v-320   C511,73.72,493.28,56,471.5,56z M39.5,71h432c13.509,0,24.5,10.991,24.5,24.5V120H15V95.5C15,81.991,25.991,71,39.5,71z M471.5,440   h-432C25.991,440,15,429.009,15,415.5V135h481v280.5C496,429.009,485.009,440,471.5,440z"/><path d="M39.5,103c1.97,0,3.91-0.8,5.3-2.2c1.4-1.39,2.2-3.33,2.2-5.3s-0.8-3.91-2.2-5.3c-1.39-1.4-3.33-2.2-5.3-2.2   c-1.97,0-3.91,0.8-5.3,2.2c-1.4,1.39-2.2,3.33-2.2,5.3s0.8,3.91,2.2,5.3C35.59,102.2,37.53,103,39.5,103z"/><path d="M63.5,103c1.97,0,3.91-0.8,5.3-2.2c1.4-1.39,2.2-3.33,2.2-5.3s-0.8-3.91-2.2-5.3c-1.39-1.4-3.33-2.2-5.3-2.2   c-1.97,0-3.91,0.8-5.3,2.2c-1.4,1.39-2.2,3.33-2.2,5.3s0.8,3.91,2.2,5.3C59.59,102.2,61.53,103,63.5,103z"/><path d="M87.5,103c1.97,0,3.91-0.8,5.3-2.2c1.4-1.39,2.2-3.33,2.2-5.3s-0.8-3.91-2.2-5.3c-1.39-1.4-3.33-2.2-5.3-2.2   c-1.97,0-3.91,0.8-5.3,2.2c-1.4,1.39-2.2,3.33-2.2,5.3s0.8,3.91,2.2,5.3C83.59,102.2,85.53,103,87.5,103z"/><path d="M289.774,192.353c-3.945-1.255-8.165,0.926-9.421,4.873l-56,176c-1.256,3.947,0.926,8.165,4.873,9.421   c0.756,0.241,1.522,0.355,2.276,0.355c3.179,0,6.13-2.037,7.145-5.228l56-176C295.903,197.827,293.721,193.609,289.774,192.353z"/><path d="M324.803,210.197c-2.929-2.929-7.678-2.929-10.606,0c-2.929,2.929-2.929,7.677,0,10.606l66.697,66.697l-66.697,66.697   c-2.929,2.929-2.929,7.677,0,10.606c1.464,1.464,3.384,2.197,5.303,2.197s3.839-0.732,5.303-2.197l72-72   c2.929-2.929,2.929-7.677,0-10.606L324.803,210.197z"/><path d="M204.803,210.197c-2.929-2.929-7.678-2.929-10.606,0l-72,72c-2.929,2.929-2.929,7.677,0,10.606l72,72   c1.464,1.464,3.384,2.197,5.303,2.197s3.839-0.732,5.303-2.197c2.929-2.929,2.929-7.677,0-10.606L138.106,287.5l66.697-66.697   C207.732,217.874,207.732,213.126,204.803,210.197z"/><path d="M119.5,103h304c4.142,0,7.5-3.358,7.5-7.5s-3.358-7.5-7.5-7.5h-304c-4.142,0-7.5,3.358-7.5,7.5S115.358,103,119.5,103z"/><path d="M455.5,103h16c4.142,0,7.5-3.358,7.5-7.5s-3.358-7.5-7.5-7.5h-16c-4.142,0-7.5,3.358-7.5,7.5S451.358,103,455.5,103z"/></g><g transform="matrix(0.11741682887077332 0 0 0.11741682887077332 302 247)" id="L1_2"><path d="M39.5,103c1.97,0,3.91-0.8,5.3-2.2c1.4-1.39,2.2-3.33,2.2-5.3c0-1.98-0.8-3.91-2.2-5.3c-1.39-1.4-3.33-2.2-5.3-2.2   c-1.97,0-3.91,0.8-5.3,2.2c-1.4,1.39-2.2,3.33-2.2,5.3s0.8,3.91,2.2,5.3C35.59,102.2,37.52,103,39.5,103z"/><path d="M63.5,103c1.97,0,3.91-0.8,5.3-2.2c1.4-1.39,2.2-3.33,2.2-5.3s-0.8-3.91-2.2-5.3c-1.39-1.4-3.33-2.2-5.3-2.2   c-1.97,0-3.91,0.8-5.3,2.2c-1.4,1.39-2.2,3.33-2.2,5.3s0.8,3.91,2.2,5.3C59.59,102.2,61.53,103,63.5,103z"/><path d="M87.5,103c1.97,0,3.91-0.8,5.3-2.2c1.4-1.39,2.2-3.33,2.2-5.3s-0.8-3.91-2.2-5.3c-1.39-1.4-3.33-2.2-5.3-2.2   c-1.97,0-3.91,0.8-5.3,2.2c-1.4,1.39-2.2,3.33-2.2,5.3s0.8,3.91,2.2,5.3C83.59,102.2,85.53,103,87.5,103z"/><path d="M119.5,103h304c4.142,0,7.5-3.358,7.5-7.5s-3.358-7.5-7.5-7.5h-304c-4.142,0-7.5,3.358-7.5,7.5S115.358,103,119.5,103z"/><path d="M455.5,103h16c4.142,0,7.5-3.358,7.5-7.5s-3.358-7.5-7.5-7.5h-16c-4.142,0-7.5,3.358-7.5,7.5S451.358,103,455.5,103z"/><path d="M263.5,224h-16c-17.369,0-31.5,14.131-31.5,31.5v48c0,17.369,14.131,31.5,31.5,31.5h16c17.369,0,31.5-14.131,31.5-31.5v-48   C295,238.131,280.869,224,263.5,224z M280,303.5c0,9.098-7.402,16.5-16.5,16.5h-16c-9.098,0-16.5-7.402-16.5-16.5v-48   c0-9.098,7.402-16.5,16.5-16.5h16c9.098,0,16.5,7.402,16.5,16.5V303.5z"/><path d="M199.5,296H191v-64.5c0-4.142-3.358-7.5-7.5-7.5s-7.5,3.358-7.5,7.5V296h-38.094l20.709-62.128   c1.31-3.929-0.814-8.177-4.744-9.487c-3.929-1.311-8.177,0.814-9.487,4.743l-24,72c-0.762,2.287-0.379,4.801,1.031,6.757   S125.089,311,127.5,311H176v16.5c0,4.142,3.358,7.5,7.5,7.5s7.5-3.358,7.5-7.5V311h8.5c4.142,0,7.5-3.358,7.5-7.5   S203.642,296,199.5,296z"/><path d="M383.5,296H375v-64.5c0-4.142-3.358-7.5-7.5-7.5s-7.5,3.358-7.5,7.5V296h-38.094l20.709-62.128   c1.31-3.929-0.814-8.177-4.744-9.487c-3.929-1.311-8.177,0.814-9.487,4.743l-24,72c-0.762,2.287-0.379,4.801,1.031,6.757   S309.089,311,311.5,311H360v16.5c0,4.142,3.358,7.5,7.5,7.5s7.5-3.358,7.5-7.5V311h8.5c4.142,0,7.5-3.358,7.5-7.5   S387.642,296,383.5,296z"/><path d="M471.5,56h-432C17.72,56,0,73.72,0,95.5v320C0,437.28,17.72,455,39.5,455h432c21.78,0,39.5-17.72,39.5-39.5v-320   C511,73.72,493.28,56,471.5,56z M39.5,71h432c13.509,0,24.5,10.991,24.5,24.5V120H15V95.5C15,81.991,25.991,71,39.5,71z M471.5,440   h-432C25.991,440,15,429.009,15,415.5V135h481v280.5C496,429.009,485.009,440,471.5,440z"/></g><g transform="matrix(0.11741682887077332 0 0 0.11741682887077332 109 -16)" id="L1_3"><path d="M39.5,103c1.97,0,3.91-0.8,5.3-2.2c1.4-1.39,2.2-3.33,2.2-5.3s-0.8-3.91-2.2-5.3c-1.39-1.4-3.33-2.2-5.3-2.2   c-1.98,0-3.91,0.8-5.3,2.2c-1.4,1.39-2.2,3.33-2.2,5.3s0.8,3.91,2.2,5.3C35.59,102.2,37.53,103,39.5,103z"/><path d="M63.5,103c1.97,0,3.91-0.8,5.3-2.2c1.4-1.39,2.2-3.33,2.2-5.3s-0.8-3.91-2.2-5.3c-1.39-1.4-3.33-2.2-5.3-2.2   c-1.97,0-3.91,0.8-5.3,2.2c-1.4,1.39-2.2,3.33-2.2,5.3s0.8,3.91,2.2,5.3C59.59,102.2,61.53,103,63.5,103z"/><path d="M87.5,103c1.97,0,3.91-0.8,5.3-2.2c1.4-1.39,2.2-3.33,2.2-5.3s-0.8-3.91-2.2-5.3c-1.39-1.4-3.33-2.2-5.3-2.2   c-1.97,0-3.91,0.8-5.3,2.2c-1.4,1.39-2.2,3.33-2.2,5.3s0.8,3.91,2.2,5.3C83.59,102.2,85.53,103,87.5,103z"/><path d="M375.5,280c-9.098,0-16.5-7.402-16.5-16.5v-24c0-17.369-14.131-31.5-31.5-31.5h-8c-4.142,0-7.5,3.358-7.5,7.5   s3.358,7.5,7.5,7.5h8c9.098,0,16.5,7.402,16.5,16.5v24c0,9.604,4.32,18.218,11.119,24c-6.799,5.782-11.119,14.396-11.119,24v24   c0,9.098-7.402,16.5-16.5,16.5h-8c-4.142,0-7.5,3.358-7.5,7.5s3.358,7.5,7.5,7.5h8c17.369,0,31.5-14.131,31.5-31.5v-24   c0-9.098,7.402-16.5,16.5-16.5c4.142,0,7.5-3.358,7.5-7.5S379.642,280,375.5,280z"/><path d="M167,263.5v-24c0-9.098,7.402-16.5,16.5-16.5h8c4.142,0,7.5-3.358,7.5-7.5s-3.358-7.5-7.5-7.5h-8   c-17.369,0-31.5,14.131-31.5,31.5v24c0,9.098-7.402,16.5-16.5,16.5c-4.142,0-7.5,3.358-7.5,7.5s3.358,7.5,7.5,7.5   c9.098,0,16.5,7.402,16.5,16.5v24c0,17.369,14.131,31.5,31.5,31.5h8c4.142,0,7.5-3.358,7.5-7.5s-3.358-7.5-7.5-7.5h-8   c-9.098,0-16.5-7.402-16.5-16.5v-24c0-9.604-4.32-18.218-11.119-24C162.68,281.718,167,273.104,167,263.5z"/><path d="M295.5,320c-1.97,0-3.91,0.8-5.3,2.2c-1.4,1.39-2.2,3.33-2.2,5.3s0.8,3.91,2.2,5.3c1.39,1.4,3.33,2.2,5.3,2.2   c1.98,0,3.91-0.8,5.3-2.2c1.4-1.39,2.2-3.33,2.2-5.3s-0.8-3.91-2.2-5.3C299.41,320.8,297.47,320,295.5,320z"/><path d="M255.5,320c-1.97,0-3.91,0.8-5.3,2.2c-1.4,1.39-2.2,3.33-2.2,5.3c0,1.98,0.8,3.91,2.2,5.3c1.39,1.4,3.33,2.2,5.3,2.2   c1.97,0,3.91-0.8,5.3-2.2c1.4-1.39,2.2-3.33,2.2-5.3s-0.8-3.91-2.2-5.3C259.41,320.8,257.47,320,255.5,320z"/><path d="M215.5,320c-1.98,0-3.91,0.8-5.3,2.2c-1.4,1.39-2.2,3.33-2.2,5.3s0.8,3.91,2.2,5.3c1.39,1.4,3.33,2.2,5.3,2.2   c1.97,0,3.91-0.8,5.3-2.2c1.4-1.39,2.2-3.33,2.2-5.3s-0.8-3.91-2.2-5.3C219.41,320.8,217.47,320,215.5,320z"/><path d="M119.5,103h304c4.142,0,7.5-3.358,7.5-7.5s-3.358-7.5-7.5-7.5h-304c-4.142,0-7.5,3.358-7.5,7.5S115.358,103,119.5,103z"/><path d="M455.5,103h16c4.142,0,7.5-3.358,7.5-7.5s-3.358-7.5-7.5-7.5h-16c-4.142,0-7.5,3.358-7.5,7.5S451.358,103,455.5,103z"/><path d="M471.5,56h-432C17.72,56,0,73.72,0,95.5v320C0,437.28,17.72,455,39.5,455h432c21.78,0,39.5-17.72,39.5-39.5v-320   C511,73.72,493.28,56,471.5,56z M39.5,71h432c13.509,0,24.5,10.991,24.5,24.5V120H15V95.5C15,81.991,25.991,71,39.5,71z M471.5,440   h-432C25.991,440,15,429.009,15,415.5V135h481v280.5C496,429.009,485.009,440,471.5,440z"/></g><g transform="matrix(0.11741682887077332 0 0 0.11741682887077332 131 98)" id="L1_4"><path d="M498.962,102.751c-0.018-0.182-0.049-0.359-0.08-0.537c-0.011-0.063-0.016-0.128-0.029-0.191   c-0.042-0.21-0.096-0.416-0.156-0.619c-0.009-0.03-0.014-0.061-0.023-0.091c-0.063-0.207-0.138-0.409-0.218-0.608   c-0.011-0.027-0.019-0.055-0.03-0.081c-0.078-0.189-0.168-0.372-0.261-0.552c-0.019-0.037-0.034-0.075-0.054-0.112   c-0.09-0.167-0.189-0.327-0.291-0.486c-0.031-0.048-0.057-0.098-0.088-0.145c-0.101-0.151-0.212-0.295-0.324-0.438   c-0.039-0.05-0.073-0.102-0.113-0.151c-0.156-0.189-0.32-0.372-0.493-0.545L400.804,2.198c-0.173-0.173-0.355-0.338-0.545-0.493   c-0.049-0.04-0.101-0.074-0.151-0.113c-0.143-0.112-0.287-0.223-0.438-0.324c-0.047-0.032-0.097-0.058-0.145-0.088   c-0.159-0.101-0.319-0.201-0.486-0.291c-0.036-0.02-0.075-0.035-0.112-0.054c-0.181-0.093-0.364-0.183-0.552-0.261   c-0.027-0.011-0.054-0.019-0.081-0.03c-0.199-0.08-0.401-0.155-0.608-0.218c-0.03-0.009-0.061-0.015-0.091-0.023   c-0.203-0.059-0.409-0.114-0.619-0.156c-0.063-0.013-0.128-0.018-0.191-0.029c-0.177-0.031-0.355-0.062-0.537-0.08   C396.001,0.013,395.751,0,395.5,0h-224C149.72,0,132,17.72,132,39.5V80H43.5C26.131,80,12,94.131,12,111.5v80   c0,17.369,14.131,31.5,31.5,31.5H132v248.5c0,21.78,17.72,39.5,39.5,39.5h288c21.78,0,39.5-17.72,39.5-39.5v-368   C499,103.249,498.987,102.999,498.962,102.751z M403,25.606L473.394,96H427.5C413.991,96,403,85.009,403,71.5V25.606z M27,191.5   v-80c0-9.098,7.402-16.5,16.5-16.5h304c9.098,0,16.5,7.402,16.5,16.5v80c0,9.098-7.402,16.5-16.5,16.5H139.519   c-0.007,0-0.013-0.001-0.019-0.001S139.487,208,139.481,208H43.5C34.402,208,27,200.598,27,191.5z M459.5,496h-288   c-13.509,0-24.5-10.991-24.5-24.5V223h200.5c17.369,0,31.5-14.131,31.5-31.5v-80c0-17.369-14.131-31.5-31.5-31.5H147V39.5   c0-13.509,10.991-24.5,24.5-24.5H388v56.5c0,21.78,17.72,39.5,39.5,39.5H484v360.5C484,485.009,473.009,496,459.5,496z"/><path d="M115.5,112c-4.142,0-7.5,3.358-7.5,7.5V152H67v-32.5c0-4.142-3.358-7.5-7.5-7.5s-7.5,3.358-7.5,7.5v64   c0,4.142,3.358,7.5,7.5,7.5s7.5-3.358,7.5-7.5V167h41v16.5c0,4.142,3.358,7.5,7.5,7.5s7.5-3.358,7.5-7.5v-64   C123,115.358,119.642,112,115.5,112z"/><path d="M211.5,191c4.142,0,7.5-3.358,7.5-7.5v-36.923l10.069,16.782c1.355,2.259,3.797,3.641,6.431,3.641h8   c2.634,0,5.076-1.382,6.431-3.641L260,146.577V183.5c0,4.142,3.358,7.5,7.5,7.5s7.5-3.358,7.5-7.5v-64   c0-3.371-2.249-6.328-5.498-7.228c-3.249-0.9-6.698,0.478-8.433,3.369L239.5,151.589l-21.569-35.948   c-1.734-2.891-5.186-4.267-8.433-3.369c-3.249,0.9-5.498,3.857-5.498,7.228v64C204,187.642,207.358,191,211.5,191z"/><path d="M139.5,127H156v56.5c0,4.142,3.358,7.5,7.5,7.5s7.5-3.358,7.5-7.5V127h16.5c4.142,0,7.5-3.358,7.5-7.5s-3.358-7.5-7.5-7.5   h-48c-4.142,0-7.5,3.358-7.5,7.5S135.358,127,139.5,127z"/><path d="M299.5,191h40c4.142,0,7.5-3.358,7.5-7.5s-3.358-7.5-7.5-7.5H307v-56.5c0-4.142-3.358-7.5-7.5-7.5s-7.5,3.358-7.5,7.5v64   C292,187.642,295.358,191,299.5,191z"/><path d="M341.872,280.385c-3.929-1.309-8.177,0.814-9.487,4.744l-48,144c-1.31,3.929,0.814,8.177,4.744,9.487   c0.787,0.262,1.586,0.387,2.373,0.387c3.14,0,6.066-1.988,7.114-5.13l48-144C347.925,285.942,345.801,281.695,341.872,280.385z"/><path d="M272.803,298.197c-2.929-2.929-7.678-2.929-10.606,0l-56,56c-2.929,2.929-2.929,7.678,0,10.606l56,56   c1.464,1.464,3.384,2.197,5.303,2.197s3.839-0.732,5.303-2.197c2.929-2.929,2.929-7.678,0-10.606L222.106,359.5l50.697-50.697   C275.732,305.875,275.732,301.125,272.803,298.197z"/><path d="M368.803,298.197c-2.929-2.929-7.678-2.929-10.606,0c-2.929,2.929-2.929,7.678,0,10.606l50.697,50.697l-50.697,50.697   c-2.929,2.929-2.929,7.678,0,10.606c1.464,1.464,3.384,2.197,5.303,2.197s3.839-0.732,5.303-2.197l56-56   c2.929-2.929,2.929-7.678,0-10.606L368.803,298.197z"/></g><g transform="matrix(0.12526096403598785 0 0 0.12526096403598785 192 255)" id="L1_5"><path d="M278.908,246.057l82.667-114.158c2.161-2.984,1.834-7.097-0.771-9.702c-2.605-2.606-6.718-2.933-9.702-0.771   l-114.158,82.667C216.351,205.416,200,222.58,200,243.5c0,21.78,17.72,39.5,39.5,39.5C260.42,283,277.585,266.649,278.908,246.057z    M274.904,226.011c-3.846-7.754-10.162-14.07-17.915-17.915l64.944-47.028L274.904,226.011z M215,243.5   c0-13.509,10.991-24.5,24.5-24.5s24.5,10.991,24.5,24.5S253.009,268,239.5,268S215,257.009,215,243.5z"/><path d="M478.996,243.424c-0.002-3.423-0.071-6.855-0.216-10.297c-1.172-27.675-7.203-54.697-17.614-79.992   c-0.094-0.433-0.221-0.864-0.397-1.288c-0.192-0.464-0.428-0.898-0.697-1.301c-11.622-27.317-28.374-52.56-49.682-74.34   c-0.053-0.055-0.108-0.107-0.162-0.162c-0.349-0.683-0.805-1.326-1.377-1.897c-0.573-0.573-1.217-1.03-1.902-1.379   c-21.872-21.487-47.282-38.378-74.83-50.044c-0.308-0.183-0.626-0.354-0.967-0.495c-0.317-0.131-0.638-0.23-0.96-0.316   c-23.8-9.832-49.156-15.785-75.185-17.426c-5.086-0.32-10.151-0.465-15.199-0.474C239.705,4.011,239.604,4,239.5,4   c-0.107,0-0.212,0.012-0.318,0.016c-28.356,0.024-56.064,4.941-82.563,14.714C126.428,29.867,99.168,46.736,75.595,68.87   c-1.796,1.687-3.553,3.404-5.291,5.137c-0.051,0.049-0.106,0.091-0.156,0.141c-0.063,0.063-0.117,0.131-0.177,0.195   c-20.95,20.971-37.631,45.286-49.619,72.397C6.847,177.284,0,209.838,0,243.5c0,48.145,14.272,94.6,41.274,134.344   C48.573,388.586,60.778,395,73.921,395H87.5c4.142,0,7.5-3.358,7.5-7.5s-3.358-7.5-7.5-7.5H73.921   c-8.17,0-15.736-3.958-20.24-10.586c-7.179-10.567-13.396-21.642-18.621-33.114l22.534-9.334c3.827-1.585,5.644-5.973,4.059-9.799   c-1.585-3.827-5.973-5.644-9.799-4.059l-22.543,9.338C20.749,299.701,15.942,275.629,15.13,251H39.5c4.142,0,7.5-3.358,7.5-7.5   s-3.358-7.5-7.5-7.5H15.136c0.8-24.642,5.541-48.597,14.146-71.457l22.572,9.35c0.938,0.389,1.911,0.573,2.867,0.573   c2.943,0,5.736-1.744,6.932-4.632c1.585-3.827-0.232-8.214-4.059-9.799l-22.556-9.343c10.16-22.358,23.749-42.659,40.508-60.539   l17.229,17.229c1.464,1.464,3.384,2.197,5.303,2.197s3.839-0.732,5.303-2.197c2.929-2.929,2.929-7.678,0-10.606L86.149,79.542   c18.176-17.009,38.575-30.621,60.502-40.602l9.384,22.654c1.197,2.888,3.989,4.632,6.932,4.632c0.957,0,1.929-0.184,2.867-0.573   c3.827-1.585,5.644-5.973,4.059-9.799l-9.384-22.655c22.665-8.508,46.727-13.287,71.491-14.075V43.5c0,4.142,3.358,7.5,7.5,7.5   s7.5-3.358,7.5-7.5V19.133c2.351,0.077,4.704,0.178,7.064,0.327c22.176,1.398,43.836,6.136,64.354,13.917l-9.31,22.477   c-1.585,3.827,0.232,8.214,4.059,9.799c0.938,0.389,1.911,0.573,2.867,0.573c2.943,0,5.736-1.744,6.932-4.632l9.289-22.425   c21.952,10.066,42.347,23.734,60.35,40.619l-16.987,16.987c-2.929,2.929-2.929,7.678,0,10.606c1.464,1.464,3.384,2.197,5.303,2.197   s3.839-0.732,5.303-2.197l16.984-16.984c16.872,18.031,30.513,38.436,40.569,60.369l-22.372,9.267   c-3.827,1.585-5.644,5.973-4.059,9.799c1.197,2.888,3.989,4.632,6.932,4.632c0.957,0,1.929-0.184,2.867-0.573l22.424-9.289   c8.356,22.019,13.215,45.332,14.224,69.158c0.032,0.747,0.048,1.492,0.073,2.238H439.5c-4.142,0-7.5,3.358-7.5,7.5   s3.358,7.5,7.5,7.5h24.373c-0.802,24.664-5.584,48.709-14.158,71.456l-22.57-9.349c-3.826-1.584-8.214,0.232-9.799,4.059   c-1.585,3.827,0.232,8.214,4.059,9.799l22.544,9.338c-5.224,11.45-11.437,22.521-18.633,33.112   C420.814,376.043,413.248,380,405.079,380H391.5c-4.142,0-7.5,3.358-7.5,7.5s3.358,7.5,7.5,7.5h13.579   c13.144,0,25.347-6.413,32.646-17.154c27.098-39.884,41.265-86.095,41.271-134.246c0-0.034,0.005-0.066,0.005-0.1   C479,243.474,478.996,243.449,478.996,243.424z"/><path d="M327.5,300h-176c-21.78,0-39.5,17.72-39.5,39.5v96c0,21.78,17.72,39.5,39.5,39.5h176c21.78,0,39.5-17.72,39.5-39.5v-96   C367,317.72,349.28,300,327.5,300z M352,435.5c0,13.509-10.991,24.5-24.5,24.5h-176c-13.509,0-24.5-10.991-24.5-24.5v-96   c0-13.509,10.991-24.5,24.5-24.5h176c13.509,0,24.5,10.991,24.5,24.5V435.5z"/><path d="M204.803,342.197c-2.929-2.929-7.678-2.929-10.606,0l-40,40c-2.929,2.929-2.929,7.678,0,10.606l40,40   c1.464,1.464,3.384,2.197,5.303,2.197s3.839-0.732,5.303-2.197c2.929-2.929,2.929-7.678,0-10.606L170.106,387.5l34.697-34.697   C207.732,349.875,207.732,345.125,204.803,342.197z"/><path d="M284.803,342.197c-2.929-2.929-7.678-2.929-10.606,0c-2.929,2.929-2.929,7.678,0,10.606l34.697,34.697l-34.697,34.697   c-2.929,2.929-2.929,7.678,0,10.606c1.464,1.464,3.384,2.197,5.303,2.197s3.839-0.732,5.303-2.197l40-40   c2.929-2.929,2.929-7.678,0-10.606L284.803,342.197z"/><path d="M239.5,396c-1.97,0-3.91,0.8-5.3,2.2c-1.4,1.39-2.2,3.33-2.2,5.3c0,1.97,0.8,3.91,2.2,5.3c1.39,1.4,3.33,2.2,5.3,2.2   c1.97,0,3.91-0.8,5.3-2.2c1.4-1.39,2.2-3.33,2.2-5.3c0-1.97-0.8-3.91-2.2-5.3C243.41,396.8,241.47,396,239.5,396z"/><path d="M263.5,396c-1.97,0-3.91,0.8-5.3,2.2c-1.4,1.39-2.2,3.33-2.2,5.3c0,1.97,0.8,3.91,2.2,5.3c1.39,1.4,3.33,2.2,5.3,2.2   c1.97,0,3.91-0.8,5.3-2.2c1.4-1.39,2.2-3.33,2.2-5.3c0-1.98-0.8-3.91-2.2-5.3C267.41,396.8,265.47,396,263.5,396z"/><path d="M215.5,396c-1.97,0-3.91,0.8-5.3,2.2c-1.4,1.39-2.2,3.33-2.2,5.3c0,1.97,0.8,3.91,2.2,5.3c1.39,1.4,3.33,2.2,5.3,2.2   c1.97,0,3.91-0.8,5.3-2.2c1.4-1.39,2.2-3.33,2.2-5.3c0-1.97-0.8-3.91-2.2-5.3C219.41,396.8,217.47,396,215.5,396z"/></g><g transform="matrix(0.11741682887077332 0 0 0.11741682887077332 104 206)" id="L1_6"><path d="M327.5,0C226.318,0,144,82.318,144,183.5c0,47.899,18.455,91.563,48.619,124.275l-23.391,23.391   c-0.468,0.468-0.853,0.986-1.172,1.532C163.131,329.642,157.443,328,151.5,328c-8.417,0-16.327,3.278-22.272,9.228L9.229,457.227   C3.278,463.176,0,471.086,0,479.5s3.278,16.324,9.226,22.27C15.173,507.722,23.083,511,31.5,511s16.327-3.278,22.272-9.228   l119.999-119.999c5.951-5.949,9.229-13.859,9.229-22.273c0-5.943-1.642-11.631-4.698-16.556c0.546-0.319,1.065-0.703,1.533-1.172   l23.391-23.391C235.937,348.545,279.601,367,327.5,367C428.682,367,511,284.682,511,183.5S428.682,0,327.5,0z M43.163,491.167   C40.05,494.284,35.908,496,31.5,496s-8.55-1.716-11.667-4.835C16.716,488.049,15,483.906,15,479.5s1.716-8.549,4.834-11.666   l106.697-106.697l23.331,23.331L43.163,491.167z M163.166,371.166l-2.697,2.697l-23.331-23.331l2.699-2.699   c3.113-3.116,7.255-4.833,11.663-4.833s8.55,1.716,11.667,4.835c3.117,3.116,4.833,7.258,4.833,11.665   S166.284,368.049,163.166,371.166z M327.5,352C234.589,352,159,276.411,159,183.5S234.589,15,327.5,15S496,90.589,496,183.5   S420.411,352,327.5,352z"/><path d="M473.064,141.375c-9.877-34.188-31.68-63.969-61.392-83.858c-3.442-2.305-8.1-1.382-10.404,2.061   c-2.304,3.442-1.382,8.1,2.061,10.404c26.779,17.926,46.427,44.759,55.325,75.556c0.949,3.284,3.946,5.42,7.202,5.42   c0.689,0,1.39-0.096,2.085-0.297C471.92,149.512,474.214,145.354,473.064,141.375z"/><path d="M312.324,319.167c-29.982-3.314-57.389-16.145-79.259-37.105c-2.99-2.866-7.738-2.765-10.604,0.225   c-2.866,2.99-2.766,7.738,0.225,10.604c23.926,22.931,55.175,37.558,87.989,41.185c0.28,0.031,0.558,0.046,0.833,0.046   c3.772,0,7.021-2.839,7.445-6.676C319.409,323.328,316.44,319.622,312.324,319.167z"/><path d="M206.171,246.107c-1.902-3.679-6.428-5.12-10.107-3.217c-3.679,1.902-5.12,6.428-3.217,10.107   c2.601,5.029,5.519,9.969,8.675,14.683c1.447,2.161,3.821,3.329,6.239,3.329c1.434,0,2.884-0.411,4.166-1.269   c3.442-2.304,4.364-6.963,2.06-10.405C211.143,255.088,208.513,250.638,206.171,246.107z"/><path d="M357.843,50.383c4.93,1.119,9.851,2.53,14.625,4.195c0.817,0.285,1.65,0.42,2.47,0.42c3.102,0,6.003-1.938,7.082-5.032   c1.364-3.911-0.701-8.188-4.612-9.551c-5.304-1.85-10.77-3.417-16.246-4.66c-4.038-0.918-8.057,1.614-8.974,5.654   C351.272,45.448,353.804,49.466,357.843,50.383z"/><path d="M414.854,174.029c-0.422-2.11-1.729-3.937-3.59-5.016c-1.861-1.08-4.095-1.308-6.136-0.628l-15.764,5.255   c-1.168-6.344-2.942-12.397-5.245-18.064l10.735-5.368c1.452-0.726,2.628-1.902,3.354-3.354l16-32   c1.853-3.705,0.351-8.21-3.354-10.062c-3.705-1.853-8.21-0.351-10.062,3.354L385.91,137.91l-8.633,4.317   c-6.531-10.319-15.05-18.576-24.84-23.831l13.771-27.542c1.853-3.705,0.351-8.21-3.354-10.062   c-3.703-1.853-8.209-0.351-10.062,3.354l-14.512,29.023c-3.507-0.754-7.104-1.169-10.78-1.169s-7.274,0.415-10.78,1.169   l-14.512-29.023c-1.852-3.705-6.356-5.208-10.062-3.354c-3.705,1.852-5.207,6.357-3.354,10.062l13.771,27.542   c-9.79,5.254-18.309,13.512-24.84,23.831l-8.633-4.317l-14.882-29.764c-1.852-3.705-6.357-5.207-10.062-3.354   c-3.705,1.852-5.207,6.357-3.354,10.062l16,32c0.726,1.452,1.902,2.628,3.354,3.354l10.735,5.368   c-2.303,5.667-4.077,11.72-5.245,18.064l-15.764-5.255c-2.042-0.68-4.275-0.451-6.136,0.628c-1.86,1.08-3.168,2.906-3.59,5.016   l-8,40c-0.812,4.062,1.822,8.013,5.884,8.825c0.497,0.099,0.991,0.147,1.479,0.147c3.502,0,6.633-2.465,7.347-6.031l6.333-31.669   l10.864,3.621c-0.022,0.858-0.052,1.713-0.052,2.577c0,8.995,1.217,17.636,3.426,25.705c-0.435,0.282-0.848,0.611-1.229,0.992   l-16,16c-2.434,2.434-2.898,6.211-1.128,9.162l24,40c1.406,2.344,3.89,3.643,6.438,3.642c1.313,0,2.644-0.345,3.852-1.07   c3.552-2.131,4.704-6.738,2.572-10.29l-20.987-34.979l8.17-8.17C284.244,255.55,304.456,271,327.5,271s43.256-15.45,54.386-38.508   l8.17,8.17l-20.987,34.979c-2.131,3.552-0.979,8.159,2.572,10.29c1.208,0.725,2.539,1.07,3.852,1.07   c2.548,0,5.032-1.298,6.438-3.642l24-40c1.771-2.951,1.306-6.729-1.128-9.162l-16-16c-0.381-0.381-0.794-0.71-1.229-0.992   c2.209-8.069,3.426-16.71,3.426-25.705c0-0.864-0.03-1.719-0.052-2.577l10.864-3.621l6.333,31.669   c0.713,3.565,3.845,6.031,7.347,6.031c0.487,0,0.982-0.048,1.479-0.147c4.062-0.813,6.696-4.764,5.884-8.825L414.854,174.029z    M320,255.226c-23.194-4.809-41-31.552-41-63.726c0-10.042,1.736-19.555,4.828-28.038c10.484,6.309,22.908,10.177,36.172,11.236   V255.226z M290.47,149.911C299.374,135.912,312.666,127,327.5,127s28.126,8.912,37.03,22.911C354.26,156.366,341.113,160,327.5,160   S300.74,156.366,290.47,149.911z M335,255.226v-80.527c13.264-1.06,25.688-4.928,36.172-11.236   c3.092,8.483,4.828,17.995,4.828,28.038C376,223.674,358.194,250.417,335,255.226z"/></g><g transform="matrix(0.11741682887077332 0 0 0.11741682887077332 211 32)" id="L1_7"><path d="M39.5,103c1.97,0,3.91-0.8,5.3-2.2c1.4-1.39,2.2-3.33,2.2-5.3s-0.8-3.91-2.2-5.3c-1.39-1.4-3.33-2.2-5.3-2.2   c-1.98,0-3.91,0.8-5.3,2.2c-1.4,1.39-2.2,3.32-2.2,5.3c0,1.97,0.8,3.91,2.2,5.3C35.59,102.2,37.53,103,39.5,103z"/><path d="M63.5,103c1.98,0,3.91-0.8,5.3-2.2c1.4-1.39,2.2-3.32,2.2-5.3c0-1.97-0.8-3.91-2.2-5.3c-1.39-1.4-3.32-2.2-5.3-2.2   c-1.97,0-3.91,0.8-5.3,2.2c-1.4,1.39-2.2,3.33-2.2,5.3s0.8,3.91,2.2,5.3C59.59,102.2,61.53,103,63.5,103z"/><path d="M87.5,103c1.97,0,3.91-0.8,5.3-2.2c1.4-1.39,2.2-3.33,2.2-5.3s-0.8-3.91-2.2-5.3c-1.39-1.4-3.33-2.2-5.3-2.2   c-1.97,0-3.91,0.8-5.3,2.2c-1.4,1.39-2.2,3.33-2.2,5.3s0.8,3.91,2.2,5.3C83.59,102.2,85.53,103,87.5,103z"/><path d="M119.5,103h304c4.142,0,7.5-3.358,7.5-7.5s-3.358-7.5-7.5-7.5h-304c-4.142,0-7.5,3.358-7.5,7.5S115.358,103,119.5,103z"/><path d="M455.5,103h16c4.142,0,7.5-3.358,7.5-7.5s-3.358-7.5-7.5-7.5h-16c-4.142,0-7.5,3.358-7.5,7.5S451.358,103,455.5,103z"/><path d="M87.5,168h-16C54.131,168,40,182.131,40,199.5v48c0,17.369,14.131,31.5,31.5,31.5h16c17.369,0,31.5-14.131,31.5-31.5v-48   C119,182.131,104.869,168,87.5,168z M104,247.5c0,9.098-7.402,16.5-16.5,16.5h-16c-9.098,0-16.5-7.402-16.5-16.5v-48   c0-9.098,7.402-16.5,16.5-16.5h16c9.098,0,16.5,7.402,16.5,16.5V247.5z"/><path d="M343,247.5v-48c0-17.369-14.131-31.5-31.5-31.5h-16c-17.369,0-31.5,14.131-31.5,31.5v48c0,17.369,14.131,31.5,31.5,31.5h16   C328.869,279,343,264.869,343,247.5z M328,247.5c0,9.098-7.402,16.5-16.5,16.5h-16c-9.098,0-16.5-7.402-16.5-16.5v-48   c0-9.098,7.402-16.5,16.5-16.5h16c9.098,0,16.5,7.402,16.5,16.5V247.5z"/><path d="M167.5,296h-16c-17.369,0-31.5,14.131-31.5,31.5v48c0,17.369,14.131,31.5,31.5,31.5h16c17.369,0,31.5-14.131,31.5-31.5v-48   C199,310.131,184.869,296,167.5,296z M184,375.5c0,9.098-7.402,16.5-16.5,16.5h-16c-9.098,0-16.5-7.402-16.5-16.5v-48   c0-9.098,7.402-16.5,16.5-16.5h16c9.098,0,16.5,7.402,16.5,16.5V375.5z"/><path d="M263.5,296h-16c-17.369,0-31.5,14.131-31.5,31.5v48c0,17.369,14.131,31.5,31.5,31.5h16c17.369,0,31.5-14.131,31.5-31.5v-48   C295,310.131,280.869,296,263.5,296z M280,375.5c0,9.098-7.402,16.5-16.5,16.5h-16c-9.098,0-16.5-7.402-16.5-16.5v-48   c0-9.098,7.402-16.5,16.5-16.5h16c9.098,0,16.5,7.402,16.5,16.5V375.5z"/><path d="M423.5,296h-16c-17.369,0-31.5,14.131-31.5,31.5v48c0,17.369,14.131,31.5,31.5,31.5h16c17.369,0,31.5-14.131,31.5-31.5v-48   C455,310.131,440.869,296,423.5,296z M440,375.5c0,9.098-7.402,16.5-16.5,16.5h-16c-9.098,0-16.5-7.402-16.5-16.5v-48   c0-9.098,7.402-16.5,16.5-16.5h16c9.098,0,16.5,7.402,16.5,16.5V375.5z"/><path d="M143.5,264c-4.142,0-7.5,3.358-7.5,7.5s3.358,7.5,7.5,7.5h32c4.142,0,7.5-3.358,7.5-7.5s-3.358-7.5-7.5-7.5H167v-88.5   c0-4.142-3.358-7.5-7.5-7.5s-7.5,3.358-7.5,7.5v8.5h-8.5c-4.142,0-7.5,3.358-7.5,7.5s3.358,7.5,7.5,7.5h8.5v65H143.5z"/><path d="M95.5,392H87v-88.5c0-4.142-3.358-7.5-7.5-7.5s-7.5,3.358-7.5,7.5v8.5h-8.5c-4.142,0-7.5,3.358-7.5,7.5s3.358,7.5,7.5,7.5   H72v65h-8.5c-4.142,0-7.5,3.358-7.5,7.5s3.358,7.5,7.5,7.5h32c4.142,0,7.5-3.358,7.5-7.5S99.642,392,95.5,392z"/><path d="M351.5,392H343v-88.5c0-4.142-3.358-7.5-7.5-7.5s-7.5,3.358-7.5,7.5v8.5h-8.5c-4.142,0-7.5,3.358-7.5,7.5   s3.358,7.5,7.5,7.5h8.5v65h-8.5c-4.142,0-7.5,3.358-7.5,7.5s3.358,7.5,7.5,7.5h32c4.142,0,7.5-3.358,7.5-7.5S355.642,392,351.5,392   z"/><path d="M239.5,279c4.142,0,7.5-3.358,7.5-7.5s-3.358-7.5-7.5-7.5H231v-88.5c0-4.142-3.358-7.5-7.5-7.5s-7.5,3.358-7.5,7.5v8.5   h-8.5c-4.142,0-7.5,3.358-7.5,7.5s3.358,7.5,7.5,7.5h8.5v65h-8.5c-4.142,0-7.5,3.358-7.5,7.5s3.358,7.5,7.5,7.5H239.5z"/><path d="M399.5,279c4.142,0,7.5-3.358,7.5-7.5s-3.358-7.5-7.5-7.5H391v-88.5c0-4.142-3.358-7.5-7.5-7.5s-7.5,3.358-7.5,7.5v8.5   h-8.5c-4.142,0-7.5,3.358-7.5,7.5s3.358,7.5,7.5,7.5h8.5v65h-8.5c-4.142,0-7.5,3.358-7.5,7.5s3.358,7.5,7.5,7.5H399.5z"/><path d="M463.5,264H455v-88.5c0-4.142-3.358-7.5-7.5-7.5s-7.5,3.358-7.5,7.5v8.5h-8.5c-4.142,0-7.5,3.358-7.5,7.5   s3.358,7.5,7.5,7.5h8.5v65h-8.5c-4.142,0-7.5,3.358-7.5,7.5s3.358,7.5,7.5,7.5h32c4.142,0,7.5-3.358,7.5-7.5S467.642,264,463.5,264   z"/><path d="M471.5,56h-432C17.72,56,0,73.72,0,95.5v320C0,437.28,17.72,455,39.5,455h432c21.78,0,39.5-17.72,39.5-39.5v-320   C511,73.72,493.28,56,471.5,56z M39.5,71h432c13.509,0,24.5,10.991,24.5,24.5V120H15V95.5C15,81.991,25.991,71,39.5,71z M471.5,440   h-432C25.991,440,15,429.009,15,415.5V135h481v280.5C496,429.009,485.009,440,471.5,440z"/></g><g transform="matrix(0.11741682887077332 0 0 0.11741682887077332 320 11)" id="L1_8"><path d="M487.5,51.999h-464c-12.958,0-23.5,10.542-23.5,23.5v304c0,12.958,10.542,23.5,23.5,23.5h158.057l-11.714,41H135.5   c-4.142,0-7.5,3.358-7.5,7.5s3.358,7.5,7.5,7.5h39.976c0.009,0,0.019,0.002,0.028,0.002c0.008,0,0.016-0.002,0.024-0.002h159.944   c0.008,0,0.016,0.002,0.024,0.002c0.009,0,0.019-0.002,0.028-0.002H375.5c4.142,0,7.5-3.358,7.5-7.5s-3.358-7.5-7.5-7.5h-34.343   l-11.714-41H487.5c12.958,0,23.5-10.542,23.5-23.5v-304C511,62.541,500.458,51.999,487.5,51.999z M325.557,443.999H185.443   l11.714-41h116.686L325.557,443.999z M496,379.499c0,4.687-3.813,8.5-8.5,8.5H319.677c-0.001,0-0.002,0-0.003,0H23.5   c-4.687,0-8.5-3.813-8.5-8.5v-304c0-4.687,3.813-8.5,8.5-8.5h464c4.687,0,8.5,3.813,8.5,8.5V379.499z"/><path d="M471.5,83.999h-432c-4.142,0-7.5,3.358-7.5,7.5v272c0,4.142,3.358,7.5,7.5,7.5h432c4.142,0,7.5-3.358,7.5-7.5v-272   C479,87.357,475.642,83.999,471.5,83.999z M464,98.999v49H47v-49H464z M47,355.999v-193h417v193H47z"/><path d="M151.5,130.999h240c4.142,0,7.5-3.358,7.5-7.5s-3.358-7.5-7.5-7.5h-240c-4.142,0-7.5,3.358-7.5,7.5   S147.358,130.999,151.5,130.999z"/><path d="M423.5,130.999h16c4.142,0,7.5-3.358,7.5-7.5s-3.358-7.5-7.5-7.5h-16c-4.142,0-7.5,3.358-7.5,7.5   S419.358,130.999,423.5,130.999z"/><path d="M71.5,130.999c1.97,0,3.91-0.8,5.3-2.2c1.4-1.39,2.2-3.33,2.2-5.3c0-1.97-0.8-3.91-2.2-5.3c-1.39-1.4-3.33-2.2-5.3-2.2   c-1.97,0-3.91,0.8-5.3,2.2c-1.4,1.39-2.2,3.33-2.2,5.3c0,1.97,0.8,3.91,2.2,5.3C67.59,130.199,69.53,130.999,71.5,130.999z"/><path d="M95.5,130.999c1.97,0,3.91-0.8,5.3-2.2c1.4-1.39,2.2-3.33,2.2-5.3c0-1.97-0.8-3.91-2.2-5.3c-1.39-1.4-3.33-2.2-5.3-2.2   c-1.98,0-3.91,0.8-5.3,2.2c-1.4,1.39-2.2,3.33-2.2,5.3c0,1.97,0.8,3.91,2.2,5.3C91.59,130.199,93.53,130.999,95.5,130.999z"/><path d="M119.5,130.999c1.97,0,3.91-0.8,5.3-2.2c1.4-1.39,2.2-3.33,2.2-5.3c0-1.97-0.8-3.91-2.2-5.3c-1.39-1.4-3.33-2.2-5.3-2.2   c-1.97,0-3.91,0.8-5.3,2.2c-1.4,1.39-2.2,3.33-2.2,5.3c0,1.97,0.8,3.91,2.2,5.3C115.59,130.199,117.53,130.999,119.5,130.999z"/><path d="M100.803,198.196c-2.929-2.929-7.678-2.929-10.606,0c-2.929,2.929-2.929,7.678,0,10.606l50.697,50.697l-50.697,50.697   c-2.929,2.929-2.929,7.678,0,10.606c1.464,1.464,3.384,2.197,5.303,2.197s3.839-0.732,5.303-2.197l56-56   c2.929-2.929,2.929-7.678,0-10.606L100.803,198.196z"/><path d="M247.5,307.999h-80c-4.142,0-7.5,3.358-7.5,7.5s3.358,7.5,7.5,7.5h80c4.142,0,7.5-3.358,7.5-7.5   S251.642,307.999,247.5,307.999z"/></g></defs><g fi:class="KUsePattern"><pattern id="pattern_L1_0" width="350" height="350" patternUnits="userSpaceOnUse"><use xlink:href="#L1_0" x="-350" y="-350"/><use xlink:href="#L1_0" x="0" y="-350"/><use xlink:href="#L1_0" x="350" y="-350"/><use xlink:href="#L1_0" x="-350" y="0"/><use xlink:href="#L1_0" x="0" y="0"/><use xlink:href="#L1_0" x="350" y="0"/><use xlink:href="#L1_0" x="-350" y="350"/><use xlink:href="#L1_0" x="0" y="350"/><use xlink:href="#L1_0" x="350" y="350"/></pattern><rect x="0" y="0" width="100%" height="100%" fill="url(#pattern_L1_0)"/></g><g fi:class="KUsePattern"><pattern id="pattern_L1_1" width="350" height="350" patternUnits="userSpaceOnUse"><use xlink:href="#L1_1" x="-350" y="-350"/><use xlink:href="#L1_1" x="0" y="-350"/><use xlink:href="#L1_1" x="350" y="-350"/><use xlink:href="#L1_1" x="-350" y="0"/><use xlink:href="#L1_1" x="0" y="0"/><use xlink:href="#L1_1" x="350" y="0"/><use xlink:href="#L1_1" x="-350" y="350"/><use xlink:href="#L1_1" x="0" y="350"/><use xlink:href="#L1_1" x="350" y="350"/></pattern><rect x="0" y="0" width="100%" height="100%" fill="url(#pattern_L1_1)"/></g><g fi:class="KUsePattern"><pattern id="pattern_L1_2" width="350" height="350" patternUnits="userSpaceOnUse"><use xlink:href="#L1_2" x="-350" y="-350"/><use xlink:href="#L1_2" x="0" y="-350"/><use xlink:href="#L1_2" x="350" y="-350"/><use xlink:href="#L1_2" x="-350" y="0"/><use xlink:href="#L1_2" x="0" y="0"/><use xlink:href="#L1_2" x="350" y="0"/><use xlink:href="#L1_2" x="-350" y="350"/><use xlink:href="#L1_2" x="0" y="350"/><use xlink:href="#L1_2" x="350" y="350"/></pattern><rect x="0" y="0" width="100%" height="100%" fill="url(#pattern_L1_2)"/></g><g fi:class="KUsePattern"><pattern id="pattern_L1_3" width="350" height="350" patternUnits="userSpaceOnUse"><use xlink:href="#L1_3" x="-350" y="-350"/><use xlink:href="#L1_3" x="0" y="-350"/><use xlink:href="#L1_3" x="350" y="-350"/><use xlink:href="#L1_3" x="-350" y="0"/><use xlink:href="#L1_3" x="0" y="0"/><use xlink:href="#L1_3" x="350" y="0"/><use xlink:href="#L1_3" x="-350" y="350"/><use xlink:href="#L1_3" x="0" y="350"/><use xlink:href="#L1_3" x="350" y="350"/></pattern><rect x="0" y="0" width="100%" height="100%" fill="url(#pattern_L1_3)"/></g><g fi:class="KUsePattern"><pattern id="pattern_L1_4" width="350" height="350" patternUnits="userSpaceOnUse"><use xlink:href="#L1_4" x="-350" y="-350"/><use xlink:href="#L1_4" x="0" y="-350"/><use xlink:href="#L1_4" x="350" y="-350"/><use xlink:href="#L1_4" x="-350" y="0"/><use xlink:href="#L1_4" x="0" y="0"/><use xlink:href="#L1_4" x="350" y="0"/><use xlink:href="#L1_4" x="-350" y="350"/><use xlink:href="#L1_4" x="0" y="350"/><use xlink:href="#L1_4" x="350" y="350"/></pattern><rect x="0" y="0" width="100%" height="100%" fill="url(#pattern_L1_4)"/></g><g fi:class="KUsePattern"><pattern id="pattern_L1_5" width="350" height="350" patternUnits="userSpaceOnUse"><use xlink:href="#L1_5" x="-350" y="-350"/><use xlink:href="#L1_5" x="0" y="-350"/><use xlink:href="#L1_5" x="350" y="-350"/><use xlink:href="#L1_5" x="-350" y="0"/><use xlink:href="#L1_5" x="0" y="0"/><use xlink:href="#L1_5" x="350" y="0"/><use xlink:href="#L1_5" x="-350" y="350"/><use xlink:href="#L1_5" x="0" y="350"/><use xlink:href="#L1_5" x="350" y="350"/></pattern><rect x="0" y="0" width="100%" height="100%" fill="url(#pattern_L1_5)"/></g><g fi:class="KUsePattern"><pattern id="pattern_L1_6" width="350" height="350" patternUnits="userSpaceOnUse"><use xlink:href="#L1_6" x="-350" y="-350"/><use xlink:href="#L1_6" x="0" y="-350"/><use xlink:href="#L1_6" x="350" y="-350"/><use xlink:href="#L1_6" x="-350" y="0"/><use xlink:href="#L1_6" x="0" y="0"/><use xlink:href="#L1_6" x="350" y="0"/><use xlink:href="#L1_6" x="-350" y="350"/><use xlink:href="#L1_6" x="0" y="350"/><use xlink:href="#L1_6" x="350" y="350"/></pattern><rect x="0" y="0" width="100%" height="100%" fill="url(#pattern_L1_6)"/></g><g fi:class="KUsePattern"><pattern id="pattern_L1_7" width="350" height="350" patternUnits="userSpaceOnUse"><use xlink:href="#L1_7" x="-350" y="-350"/><use xlink:href="#L1_7" x="0" y="-350"/><use xlink:href="#L1_7" x="350" y="-350"/><use xlink:href="#L1_7" x="-350" y="0"/><use xlink:href="#L1_7" x="0" y="0"/><use xlink:href="#L1_7" x="350" y="0"/><use xlink:href="#L1_7" x="-350" y="350"/><use xlink:href="#L1_7" x="0" y="350"/><use xlink:href="#L1_7" x="350" y="350"/></pattern><rect x="0" y="0" width="100%" height="100%" fill="url(#pattern_L1_7)"/></g><g fi:class="KUsePattern"><pattern id="pattern_L1_8" width="350" height="350" patternUnits="userSpaceOnUse"><use xlink:href="#L1_8" x="-350" y="-350"/><use xlink:href="#L1_8" x="0" y="-350"/><use xlink:href="#L1_8" x="350" y="-350"/><use xlink:href="#L1_8" x="-350" y="0"/><use xlink:href="#L1_8" x="0" y="0"/><use xlink:href="#L1_8" x="350" y="0"/><use xlink:href="#L1_8" x="-350" y="350"/><use xlink:href="#L1_8" x="0" y="350"/><use xlink:href="#L1_8" x="350" y="350"/></pattern><rect x="0" y="0" width="100%" height="100%" fill="url(#pattern_L1_8)"/></g></svg>