<?xml version="1.0" standalone="no"?>
<!DOCTYPE svg PUBLIC "-//W3C//DTD SVG 20010904//EN"
 "http://www.w3.org/TR/2001/REC-SVG-20010904/DTD/svg10.dtd">
<svg version="1.0" xmlns="http://www.w3.org/2000/svg"
 width="428.000000pt" height="428.000000pt" viewBox="0 0 428.000000 428.000000"
 preserveAspectRatio="xMidYMid meet">
<metadata>
Created by potrace 1.11, written by Peter Selinger 2001-2013
</metadata>
<g transform="translate(0.000000,428.000000) scale(0.100000,-0.100000)"
fill="#000000" stroke="none">
<path d="M2048 3345 c-2 -1 -31 -5 -64 -9 -73 -7 -190 -37 -278 -70 -414 -156
-720 -550 -772 -994 -17 -144 -5 -322 29 -439 l14 -48 23 50 c20 44 21 57 12
110 -27 168 -8 378 48 547 156 466 598 783 1090 781 429 -2 825 -248 1020
-634 40 -78 85 -206 95 -269 3 -19 10 -50 15 -69 10 -37 7 -327 -5 -381 -77
-367 -298 -657 -622 -819 -258 -129 -567 -156 -853 -75 -73 21 -187 74 -247
115 -52 36 -52 36 -63 19 -4 -7 -22 -13 -39 -14 -17 0 -31 -2 -31 -3 0 -1 41
-29 92 -62 180 -119 372 -171 633 -171 113 -1 157 4 265 27 401 84 750 393
889 788 79 225 85 505 17 745 -129 451 -526 796 -995 866 -39 6 -268 13 -273
9z"/>
<path d="M2248 2815 c-2 -1 -30 -5 -63 -8 -33 -4 -96 -16 -140 -27 -468 -124
-894 -563 -1051 -1083 -33 -110 -50 -272 -33 -322 3 -11 12 -38 19 -60 16 -51
51 -105 68 -105 6 0 12 -4 12 -10 0 -5 7 -10 15 -10 13 0 19 -11 17 -31 -1 -3
6 -6 13 -6 12 0 12 3 2 16 -10 12 -9 13 3 6 30 -19 49 -39 43 -48 -3 -6 -1 -7
6 -3 9 6 9 11 0 22 -10 12 -8 14 9 11 12 -2 25 -7 29 -12 5 -4 2 -5 -4 -1 -9
5 -11 2 -6 -10 6 -16 8 -16 16 4 9 19 11 20 33 5 13 -8 21 -20 17 -27 -3 -6
-2 -7 2 -3 12 10 16 39 5 32 -5 -3 -11 -1 -14 3 -3 5 7 8 22 7 15 -1 30 3 34
9 5 7 8 6 8 -3 0 -11 3 -11 15 -1 9 7 18 10 22 7 3 -4 12 -2 20 4 7 6 13 8 13
4 0 -4 12 0 26 10 15 9 23 12 20 6 -4 -6 -2 -11 4 -11 6 0 9 -4 6 -8 -3 -5 1
-9 9 -9 11 0 12 5 3 20 -7 15 -7 18 2 12 7 -4 17 -1 22 6 6 10 7 6 3 -11 -3
-14 -3 -20 2 -14 4 6 16 10 26 8 9 -1 15 1 12 6 -8 14 28 21 38 8 6 -9 7 -8 3
5 -3 11 0 17 9 18 8 1 20 3 25 4 6 1 15 3 20 4 6 0 10 6 10 12 0 8 -4 8 -14 0
-11 -9 -16 -9 -22 1 -4 7 -4 10 1 6 4 -4 14 -3 21 3 11 9 15 7 20 -6 5 -13 9
-14 15 -4 5 8 3 17 -4 22 -7 5 -2 5 12 2 17 -5 22 -4 16 5 -5 8 -4 11 3 6 5
-3 12 -1 14 6 3 8 7 6 11 -5 4 -10 2 -16 -5 -14 -5 1 -12 -6 -13 -16 -3 -17
-2 -17 14 -3 10 9 20 14 23 11 2 -3 5 2 5 10 0 8 -3 12 -7 10 -4 -2 -7 2 -7 9
0 8 7 12 15 8 11 -4 13 -2 7 9 -7 11 -6 12 7 2 8 -7 18 -10 21 -6 4 3 15 0 24
-8 14 -11 14 -8 -2 10 -11 14 -14 21 -7 17 8 -5 19 -1 28 10 14 18 14 18 5 -3
-8 -16 -8 -24 1 -29 6 -4 8 -3 4 4 -3 5 -1 12 4 14 6 2 12 12 14 23 2 11 8 20
14 20 6 0 13 3 17 7 4 4 14 4 23 1 11 -5 13 -3 7 7 -5 9 -4 11 4 6 6 -4 19 -2
28 6 14 11 16 11 9 -1 -6 -9 -5 -12 5 -9 8 3 13 14 11 24 -2 11 1 15 5 9 14
-17 47 -41 39 -27 -4 7 -2 12 4 12 6 0 8 5 4 11 -5 8 -9 8 -14 -1 -5 -8 -10
-9 -14 -2 -8 13 13 20 37 14 10 -3 16 -11 13 -18 -3 -7 0 -16 7 -20 7 -4 9 -3
4 1 -4 5 0 19 8 32 9 13 11 23 5 23 -5 0 -10 -5 -10 -11 0 -5 -4 -7 -10 -4 -5
3 -10 11 -10 17 0 6 3 8 7 5 3 -4 12 -2 18 3 14 12 29 -14 19 -33 -3 -7 1 -4
9 5 8 10 18 14 22 10 5 -4 5 -1 1 6 -4 7 -11 10 -16 7 -4 -3 -7 2 -6 12 2 9
12 20 24 24 16 6 20 5 16 -6 -3 -8 -13 -11 -22 -8 -14 4 -14 3 -3 -5 17 -12
53 6 45 23 -3 5 2 1 10 -9 9 -11 16 -14 16 -7 0 7 4 10 8 7 5 -3 9 1 9 9 0 16
-13 20 -19 6 -1 -5 -9 -3 -16 5 -10 11 -7 13 19 10 17 -2 36 -10 41 -17 7 -11
8 -9 4 5 -4 13 -2 17 7 13 8 -3 14 1 15 9 1 8 3 20 4 28 1 8 9 12 20 10 10 -2
28 -6 39 -9 12 -2 18 -1 15 3 -4 4 -13 7 -19 7 -5 0 -12 7 -14 15 -4 12 -3 13
5 1 8 -11 11 -10 15 5 4 16 5 17 6 2 0 -10 6 -18 12 -18 6 0 9 6 6 14 -3 9 4
21 19 30 13 9 24 13 24 9 0 -5 5 -1 10 7 8 13 10 12 10 -2 0 -16 -6 -20 -27
-17 -9 1 -26 -32 -19 -38 3 -4 6 0 6 8 0 11 2 11 10 -1 8 -13 10 -12 10 3 0
20 16 23 23 5 3 -7 5 -4 6 7 2 52 4 55 20 42 12 -10 14 -9 7 7 -7 19 -6 19 14
1 11 -10 20 -14 20 -9 0 5 7 0 15 -10 8 -11 15 -15 15 -9 0 7 -4 14 -8 17 -10
6 -9 36 2 54 4 7 12 10 17 6 6 -4 6 -11 -2 -20 -6 -8 -9 -17 -5 -21 3 -3 6 0
6 8 0 12 2 11 11 -1 9 -13 10 -13 8 0 -3 32 1 51 11 45 6 -3 13 1 16 9 3 9 10
16 16 16 5 0 6 -5 2 -11 -4 -7 -1 -10 7 -7 8 3 14 10 14 16 0 5 4 14 9 19 5 5
6 3 2 -4 -7 -13 5 -17 33 -14 8 2 10 -3 5 -11 -4 -8 -3 -10 2 -5 5 5 9 14 9
20 0 7 8 11 17 11 10 -1 14 4 11 12 -4 11 -11 10 -33 -6 -25 -18 -28 -18 -26
-3 2 9 9 18 17 19 48 9 62 15 77 31 9 11 13 13 8 6 -11 -17 8 -17 23 0 6 8 8
16 5 19 -9 9 22 17 35 8 9 -5 10 -10 2 -14 -6 -4 -11 -1 -11 6 0 10 -3 9 -9
-2 -15 -22 -1 -33 18 -16 10 9 22 13 26 9 5 -5 3 0 -4 10 -13 16 -12 19 7 24
12 3 20 9 17 13 -3 4 2 13 10 20 11 9 15 9 15 1 0 -7 5 -9 10 -6 6 4 7 12 4
18 -4 7 -4 9 1 5 4 -4 21 2 36 13 16 11 29 17 29 12 0 -4 7 0 14 10 12 16 14
16 20 2 3 -9 2 -14 -2 -11 -4 2 -8 -8 -8 -22 -2 -26 -1 -26 9 -4 12 26 24 28
30 5 4 -17 5 -17 6 0 0 10 -6 20 -14 23 -8 4 -15 10 -15 16 0 5 4 7 9 4 5 -3
11 1 15 9 3 8 12 15 20 15 8 0 17 6 19 13 4 9 6 9 6 0 1 -7 -8 -17 -19 -23
-21 -11 -27 -30 -9 -30 5 0 7 5 4 10 -3 6 1 10 10 10 8 0 18 7 21 15 4 10 13
13 25 10 11 -4 19 -2 19 5 0 7 6 10 13 7 8 -3 14 1 14 9 0 12 -3 12 -22 0 -15
-10 -26 -11 -36 -5 -11 8 -10 9 6 7 11 -2 19 2 18 9 -2 7 4 10 12 7 8 -4 15
-1 15 5 0 7 8 11 18 9 9 -2 16 3 15 9 -2 7 1 12 6 10 5 -1 17 7 26 18 16 19
16 19 4 -5 -6 -14 -8 -22 -4 -18 4 4 14 0 22 -10 8 -9 11 -11 7 -3 -4 8 -9 30
-11 50 -4 37 -16 51 -46 51 -17 0 -200 -88 -342 -165 -177 -95 -226 -121 -400
-208 -218 -110 -292 -144 -425 -197 -94 -37 -239 -86 -282 -94 -13 -2 -42 -9
-66 -14 -53 -12 -222 -10 -242 3 -14 9 -19 11 -39 14 -5 0 -27 18 -50 40 -40
37 -74 98 -75 133 -1 9 -4 20 -8 24 -4 4 1 15 12 24 18 15 18 19 5 24 -9 3
-13 2 -10 -3 3 -5 1 -12 -3 -15 -5 -3 -8 5 -7 17 0 12 -2 29 -6 37 -5 11 -2
16 13 17 15 2 17 -1 9 -11 -11 -13 -5 -26 11 -26 9 0 6 29 -6 48 -4 7 -2 20 6
29 7 9 8 14 2 10 -7 -4 -14 -1 -17 7 -7 17 14 15 39 -3 11 -7 4 0 -14 17 -27
24 -30 31 -17 36 10 4 14 2 9 -6 -4 -6 -3 -8 4 -4 5 3 12 0 15 -6 3 -7 4 -3 4
9 -1 12 -5 19 -9 17 -10 -7 -10 -1 2 30 13 34 5 33 -15 -1 -9 -16 -13 -19 -9
-8 3 11 7 25 7 30 0 6 9 12 19 12 14 1 17 -3 13 -18 -4 -10 -3 -19 2 -19 15 0
13 38 -3 51 -8 6 -14 17 -14 23 0 7 3 7 8 1 4 -5 16 -17 27 -25 l20 -15 -20
24 c-18 22 -19 24 -2 18 13 -5 17 -3 14 5 -2 7 -13 12 -23 10 -16 -3 -16 -1 4
13 18 13 21 20 11 31 -11 14 -10 15 13 18 7 0 13 10 13 21 0 11 5 20 12 20 6
0 15 3 19 8 4 4 1 7 -7 7 -12 0 -12 2 1 9 23 15 33 1 14 -20 -9 -10 -21 -16
-26 -13 -5 3 -7 -6 -4 -20 3 -18 1 -24 -6 -20 -7 5 -8 2 -3 -6 6 -9 4 -11 -6
-5 -8 5 -11 5 -7 0 4 -4 2 -15 -4 -24 -10 -12 -7 -12 8 2 11 9 24 14 28 10 4
-5 7 -3 6 2 -1 6 -1 15 0 20 1 6 3 17 4 25 0 9 9 14 21 12 16 -2 17 -1 5 7
-14 10 -13 12 9 15 5 0 13 5 18 10 5 5 3 6 -4 2 -16 -9 -17 6 -2 21 8 8 7 13
-2 18 -8 6 -10 4 -4 -5 6 -9 4 -11 -5 -5 -9 5 -11 4 -6 -3 5 -8 1 -10 -10 -5
-11 4 -13 8 -6 11 7 2 9 9 6 14 -4 6 -2 8 4 4 6 -3 13 3 17 14 6 18 8 18 21 5
24 -24 28 -18 8 13 -14 22 -14 24 -1 14 13 -11 17 -10 26 6 6 11 7 23 3 27 -4
5 -1 4 7 0 11 -6 13 -4 8 9 -4 9 -3 15 2 11 6 -3 14 3 20 12 6 10 11 14 11 9
0 -5 10 -1 22 10 12 10 18 14 15 7 -8 -13 18 -12 30 2 4 4 2 5 -4 1 -7 -4 -13
-3 -13 3 0 5 -8 12 -17 15 -10 2 -3 3 15 1 18 -2 41 -9 50 -17 15 -12 16 -11
3 5 -12 15 -9 21 12 18 4 0 6 2 6 7 -3 19 2 25 12 12 8 -12 9 -12 7 5 -2 11 3
20 10 21 6 1 14 3 17 4 7 4 23 7 38 9 8 1 8 4 -3 11 -9 5 -19 5 -27 -2 -7 -6
-13 -7 -13 -3 0 4 -6 2 -14 -4 -10 -8 -16 -9 -21 -1 -3 5 -4 11 -1 11 3 1 9 2
14 3 4 1 12 4 17 7 6 4 24 5 42 4 26 -1 31 2 27 18 -2 11 0 17 3 13 4 -4 13 4
21 16 7 13 11 15 8 6 -3 -10 -9 -26 -12 -35 -5 -17 -5 -17 6 -1 6 10 18 15 28
12 14 -5 14 -4 2 5 -8 5 -11 13 -7 17 4 4 16 -1 28 -12 14 -13 20 -14 17 -4
-2 8 4 14 12 15 9 0 14 9 13 22 -2 16 2 21 12 17 8 -4 12 -11 8 -17 -4 -6 -1
-7 6 -3 9 6 8 13 -6 29 -16 19 -16 20 -1 8 17 -13 85 -25 74 -13 -3 3 0 12 7
21 10 14 10 14 -4 4 -13 -10 -16 -10 -16 1 0 9 8 13 24 10 15 -3 22 -1 19 5
-4 6 3 8 16 5 13 -3 29 -6 36 -6 11 -1 16 -13 13 -31 -1 -5 3 -6 9 -2 7 4 7
12 0 26 -6 11 -15 17 -20 14 -5 -3 -12 0 -16 7 -4 7 -4 10 1 6 4 -4 15 -2 23
5 13 9 14 9 8 0 -5 -9 2 -13 26 -13 25 0 29 -3 18 -10 -9 -6 -10 -10 -3 -10 6
0 15 5 19 11 4 8 9 7 16 -2 6 -10 7 -7 3 9 -4 13 -2 22 4 22 6 0 11 -4 11 -10
0 -5 8 -10 18 -10 14 0 15 2 2 10 -12 7 -10 9 7 7 12 0 20 -4 17 -8 -6 -11 23
-19 48 -12 48 11 86 3 104 -22 8 -10 14 -15 14 -9 0 5 7 0 15 -10 8 -11 15
-16 15 -10 0 11 20 -17 20 -29 0 -5 -6 -5 -12 -2 -7 4 -6 0 3 -7 18 -15 17
-52 -5 -113 -22 -60 -5 -80 67 -80 47 0 54 2 46 16 -5 10 -3 23 5 34 16 22 47
29 39 9 -3 -8 0 -14 6 -14 6 0 10 3 10 8 -3 19 2 33 10 28 5 -3 8 12 7 33 0
22 3 37 7 34 7 -4 19 22 19 44 1 4 9 14 20 21 13 10 16 17 9 26 -7 8 -4 12 12
13 17 2 19 0 7 -7 -9 -6 -10 -10 -3 -10 21 0 24 19 4 29 -16 9 -19 22 -12 49
1 1 9 -2 19 -7 14 -7 19 -6 19 4 0 8 -3 12 -7 10 -3 -2 -12 0 -20 5 -13 8 -13
13 -2 31 7 11 11 24 8 27 -3 3 -6 -1 -6 -9 0 -12 -2 -12 -9 0 -6 9 -5 23 1 35
10 19 9 19 -5 8 -13 -11 -16 -10 -22 8 -15 47 -112 105 -195 117 -33 4 -139
10 -142 8z m-38 -253 c0 -4 -9 -8 -20 -9 -11 -1 -20 2 -20 5 0 4 9 8 20 9 11
1 20 -2 20 -5z m-317 -46 c6 -15 -17 -16 -30 -1 -4 4 -2 5 5 1 6 -4 12 -2 12
3 0 15 7 14 13 -3z m-89 -28 c-3 -4 0 -8 5 -8 6 0 11 -5 11 -12 0 -6 -3 -8 -7
-5 -3 4 -11 3 -17 -2 -7 -6 -19 -4 -31 6 -20 15 -20 15 0 11 11 -2 19 2 18 8
-1 6 4 11 12 11 8 0 12 -4 9 -9z m-115 -71 c0 -9 -2 -8 -6 1 -2 6 -10 9 -15 6
-7 -4 -8 -2 -4 5 9 13 26 5 25 -12z m-101 -74 c-12 -13 -24 -20 -26 -14 -2 5
-11 7 -20 4 -14 -4 -14 -3 -3 5 8 6 21 8 29 4 11 -4 13 -1 7 8 -6 9 -4 11 5 5
10 -6 12 -4 7 8 -4 11 -2 14 9 10 12 -5 11 -10 -8 -30z m952 23 c0 -3 -4 -8
-10 -11 -5 -3 -10 -1 -10 4 0 6 5 11 10 11 6 0 10 -2 10 -4z m-1335 -575 c3
-5 2 -12 -3 -15 -5 -3 -9 1 -9 9 0 17 3 19 12 6z m1238 -146 c4 -8 2 -17 -3
-20 -6 -4 -10 3 -10 14 0 25 6 27 13 6z m-236 -120 c0 -8 -6 -16 -14 -19 -11
-4 -11 -1 -3 14 13 24 17 25 17 5z m-667 -299 c0 -2 -11 -11 -25 -20 -14 -9
-25 -13 -25 -8 0 5 10 14 23 20 27 13 27 13 27 8z"/>
<path d="M2626 2608 c3 -5 10 -6 15 -3 13 9 11 12 -6 12 -8 0 -12 -4 -9 -9z"/>
<path d="M2613 2555 c0 -8 3 -13 5 -10 3 3 12 -1 21 -7 10 -8 9 -4 -3 10 -23
26 -23 26 -23 7z"/>
<path d="M2230 2546 c0 -2 7 -7 16 -10 8 -3 12 -2 9 4 -6 10 -25 14 -25 6z"/>
<path d="M1955 2529 c-10 -15 3 -25 16 -12 7 7 7 13 1 17 -6 3 -14 1 -17 -5z"/>
<path d="M2270 2520 c0 -5 5 -10 10 -10 6 0 10 5 10 10 0 6 -4 10 -10 10 -5 0
-10 -4 -10 -10z"/>
<path d="M2596 2468 c-20 -28 -20 -34 -2 -41 10 -4 13 1 11 19 -1 14 4 28 14
34 9 5 11 10 4 10 -6 0 -19 -10 -27 -22z"/>
<path d="M2564 2408 c-4 -6 -3 -8 4 -4 5 3 12 1 14 -6 3 -8 6 -9 11 -1 4 6 0
13 -8 17 -8 3 -17 0 -21 -6z"/>
<path d="M2570 2370 c6 -11 13 -20 16 -20 2 0 0 9 -6 20 -6 11 -13 20 -16 20
-2 0 0 -9 6 -20z"/>
<path d="M2480 2310 c-8 -15 -8 -18 3 -14 8 3 14 11 14 19 0 20 -4 19 -17 -5z"/>
<path d="M2510 2291 c0 -6 4 -13 10 -16 6 -3 7 1 4 9 -7 18 -14 21 -14 7z"/>
<path d="M1471 2249 c-17 -17 -31 -36 -31 -42 0 -7 8 0 18 16 9 15 25 30 34
33 10 3 18 10 18 15 0 15 -6 11 -39 -22z"/>
<path d="M2430 2251 c0 -6 4 -13 10 -16 6 -3 7 1 4 9 -7 18 -14 21 -14 7z"/>
<path d="M1471 2204 c0 -11 3 -14 6 -6 3 7 2 16 -1 19 -3 4 -6 -2 -5 -13z"/>
<path d="M1430 2179 c0 -5 5 -7 10 -4 6 3 10 8 10 11 0 2 -4 4 -10 4 -5 0 -10
-5 -10 -11z"/>
<path d="M1380 2160 c0 -5 5 -10 11 -10 5 0 7 5 4 10 -3 6 -8 10 -11 10 -2 0
-4 -4 -4 -10z"/>
<path d="M3195 2060 c-3 -5 -1 -10 4 -10 6 0 11 5 11 10 0 6 -2 10 -4 10 -3 0
-8 -4 -11 -10z"/>
<path d="M3130 2005 c-7 -8 -16 -12 -21 -9 -5 3 -6 -3 -2 -12 4 -11 8 -13 11
-6 2 7 8 12 13 12 6 0 7 -5 3 -12 -4 -7 -3 -8 4 -4 6 4 8 14 5 24 -6 15 -5 16
13 2 18 -14 18 -14 5 3 -16 21 -16 21 -31 2z"/>
<path d="M1300 1986 c0 -2 7 -7 16 -10 8 -3 12 -2 9 4 -6 10 -25 14 -25 6z"/>
<path d="M2868 1869 c-18 -15 -30 -30 -25 -35 4 -4 7 -1 7 6 0 9 7 7 23 -6
l22 -19 -18 22 c-18 21 -18 21 2 28 12 3 21 12 21 18 0 8 3 8 9 -1 7 -11 9
-11 14 0 9 24 -20 17 -55 -13z"/>
<path d="M2813 1835 c0 -8 4 -15 9 -15 4 0 8 7 8 15 0 8 -4 15 -8 15 -5 0 -9
-7 -9 -15z"/>
<path d="M2797 1805 c3 -8 9 -12 14 -9 12 7 11 11 -5 17 -10 4 -13 1 -9 -8z"/>
<path d="M2683 1753 c-15 -5 -17 -23 -4 -23 5 0 11 7 15 15 3 8 4 15 3 14 -1
0 -8 -3 -14 -6z"/>
<path d="M2520 1675 c-7 -9 -10 -18 -6 -22 3 -3 6 0 6 7 0 9 5 7 16 -6 15 -18
15 -18 5 2 -6 12 -7 24 -4 28 3 3 4 6 1 6 -3 0 -11 -7 -18 -15z"/>
<path d="M2560 1680 c-12 -7 -10 -9 8 -7 12 0 22 5 22 9 0 11 -12 10 -30 -2z"/>
<path d="M1216 1653 c-6 -14 -5 -15 5 -6 7 7 10 15 7 18 -3 3 -9 -2 -12 -12z"/>
<path d="M1215 1600 c3 -5 8 -10 11 -10 2 0 4 5 4 10 0 6 -5 10 -11 10 -5 0
-7 -4 -4 -10z"/>
<path d="M2410 1600 c0 -5 5 -10 11 -10 5 0 7 5 4 10 -3 6 -8 10 -11 10 -2 0
-4 -4 -4 -10z"/>
<path d="M1230 1569 c0 -5 5 -7 10 -4 6 3 10 8 10 11 0 2 -4 4 -10 4 -5 0 -10
-5 -10 -11z"/>
<path d="M1240 1546 c0 -2 8 -10 18 -17 15 -13 16 -12 3 4 -13 16 -21 21 -21
13z"/>
<path d="M2239 1539 c-5 -31 -7 -51 -3 -41 3 6 9 10 14 7 10 -6 7 21 -3 31 -4
4 -7 5 -8 3z"/>
<path d="M1940 1360 c-8 -5 -10 -10 -5 -10 6 0 17 5 25 10 8 5 11 10 5 10 -5
0 -17 -5 -25 -10z"/>
<path d="M1854 1348 c-3 -5 -9 -6 -13 -4 -4 3 -8 -4 -8 -15 -1 -10 2 -19 8
-19 5 0 8 3 8 8 -4 21 3 24 16 6 15 -18 15 -18 8 0 -4 12 -3 17 4 13 6 -4 13
-1 16 6 5 14 -31 18 -39 5z"/>
<path d="M1730 1279 c0 -9 31 -21 38 -14 3 3 0 5 -7 5 -7 0 -10 4 -7 8 3 5 -1
9 -9 9 -8 0 -15 -4 -15 -8z"/>
<path d="M1651 1234 c0 -11 3 -14 6 -6 3 7 2 16 -1 19 -3 4 -6 -2 -5 -13z"/>
<path d="M1403 1173 c-15 -5 -17 -23 -4 -23 5 0 11 7 15 15 3 8 4 15 3 14 -1
0 -8 -3 -14 -6z"/>
<path d="M1365 1160 c-3 -5 -11 -8 -18 -6 -7 1 -9 1 -4 -1 4 -3 4 -10 0 -16
-5 -8 -2 -8 9 0 8 7 17 11 20 8 2 -3 5 2 5 10 0 17 -3 19 -12 5z"/>
<path d="M1283 1134 c0 -9 4 -11 10 -5 5 5 17 7 26 4 9 -4 13 -3 10 1 -13 14
-46 14 -46 0z"/>
</g>
</svg>
