<svg viewBox="4.7 6 173 51.5" xmlns="http://www.w3.org/2000/svg">
  <path d="M18.5 43.6c-2.6 0-4.9-.5-6.8-1.5-2-1-3.5-2.4-4.6-4.3a13 13 0 01-1.6-6.6c0-2.5.5-4.7 1.6-6.6 1-1.9 2.6-3.3 4.6-4.3 2-1 4.2-1.6 6.8-1.6 1.7 0 3.2.2 4.6.6 1.3.3 2.6.8 3.7 1.6v5.7c-1-.8-2.1-1.4-3.4-1.7-1.3-.4-2.7-.6-4.4-.6-2.3 0-4.1.6-5.4 1.8a6.7 6.7 0 00-1.9 5c0 2.3.7 4 2 5.2 1.2 1.2 3 1.8 5.3 1.8 1.7 0 3.2-.2 4.4-.6 1.3-.4 2.5-1 3.7-1.8v5.7c-2.2 1.5-5 2.2-8.6 2.2zm10.4-.5V17.9h6V43h-6zm11.8-18.6c-.9 0-1.6-.3-2.3-.8a3 3 0 01-.9-2.3 3.1 3.1 0 013.2-3.1 3.2 3.2 0 013.2 3.1 3.2 3.2 0 01-3.2 3.1zm-3 18.6V26.7h6v16.4h-6zm8.8 0V26.7h5.8v1.8c.7-.7 1.5-1.3 2.5-1.7 1-.4 2.1-.6 3.2-.6 2.3 0 4 .6 5 1.8a6.9 6.9 0 011.7 4.9V43h-6v-9.5c0-1.8-.8-2.7-2.5-2.7-.8 0-1.5.2-2.1.5-.6.4-1.2 1-1.6 1.6v10h-6zm27.7.5c-2 0-3.5-.6-4.6-1.7a6.6 6.6 0 01-1.5-4.6v-6.4h-2.3v-4.2H68v-4.9h6v5h3.7v4h-3.7v5.7c0 .9.2 1.5.5 1.9.3.4.9.6 1.7.6.8 0 1.5-.2 2.3-.6v4.4c-.6.3-1.2.5-1.9.6l-2.5.2z" style="white-space:pre" fill="#2d2d2d"/>
  <path d="M83.9 43V19.4h6V38h10.4v5H83.9zm26.8.6c-2 0-3.8-.4-5.3-1.1a8.2 8.2 0 01-4.8-7.6 8.2 8.2 0 014.8-7.6 12 12 0 015.3-1c2 0 3.8.3 5.4 1 1.5.8 2.7 1.8 3.5 3a8.3 8.3 0 011.2 4.6c0 1.7-.4 3.2-1.2 4.5-.8 1.3-2 2.4-3.5 3a12 12 0 01-5.4 1.2zm0-4.7a4 4 0 003-1 4 4 0 001-3 4 4 0 00-1-3c-.8-.7-1.8-1-3-1a4 4 0 00-2.9 1 4 4 0 00-1 3 4 4 0 001 3 4 4 0 003 1zm18.2 4.7a23 23 0 01-4.1-.4c-1.4-.2-2.6-.6-3.4-1.1v-4.4a13.9 13.9 0 007 1.9c.7 0 1.3 0 1.7-.2.3-.1.5-.3.5-.7 0-.2-.1-.5-.3-.6l-1.3-.6a72 72 0 00-2.2-.6 17 17 0 01-3.3-1.3c-.8-.4-1.4-1-1.7-1.6-.4-.7-.6-1.5-.6-2.5 0-1.8.7-3 2-4 1.5-.8 3.4-1.3 5.8-1.3 1.2 0 2.4.1 3.8.4a9 9 0 012.9 1v4.3a12.6 12.6 0 00-5.9-1.6c-.7 0-1.3.1-1.8.3-.4.1-.6.4-.6.7 0 .4.2.6.6.8a17.6 17.6 0 003.3 1c1.4.3 2.5.8 3.3 1.2.8.5 1.4 1 1.7 1.7.4.7.5 1.5.5 2.5 0 1.6-.7 2.8-2 3.7-1.4 1-3.3 1.4-5.9 1.4zm19.4 0c-3.2 0-5.7-.7-7.5-2.2A7.8 7.8 0 01138 35c0-2.7.8-4.9 2.5-6.4 1.6-1.6 4-2.4 7-2.4 2 0 3.6.4 5 1.1 1.4.8 2.5 1.8 3.2 3 .7 1.3 1 2.8 1 4.4V37h-13c.3 1 .8 1.6 1.7 2 1 .4 2.2.6 3.7.6a20.8 20.8 0 006.3-1v4l-3.2.8-3.9.3zm-4.6-10.4h7.4a3 3 0 00-1-2.1c-.7-.5-1.6-.8-2.7-.8-1 0-2 .3-2.6.8a3 3 0 00-1 2zm24.6 10.4c-3.2 0-5.7-.7-7.6-2.2A7.8 7.8 0 01158 35c0-2.7.8-4.9 2.4-6.4 1.7-1.6 4-2.4 7-2.4 2 0 3.7.4 5 1.1 1.5.8 2.5 1.8 3.3 3 .7 1.3 1 2.8 1 4.4V37h-13c.2 1 .8 1.6 1.7 2 .9.4 2.1.6 3.7.6a20.9 20.9 0 006.2-1v4a23.2 23.2 0 01-7 1.2zm-4.6-10.4h7.4A3 3 0 00170 31c-.6-.5-1.5-.8-2.6-.8s-2 .3-2.6.8a3 3 0 00-1.1 2z" style="white-space:pre" fill="#f60"/>
</svg>
